<svg xmlns="http://www.w3.org/2000/svg" viewBox="0 0 64 64" fill="currentColor" aria-hidden="true">
  <path d="M55.1 10.9L40 26v6.5l6.9 6.9c1 .9 1 2.5.1 3.5l-5.4 5.4c-.9 1-.9 2.5.1 3.5l2.9 2.9c1 1 1 2.6 0 3.6L40 60.1c-1 1-2.6 1-3.6 0l-2.9-2.9c-1-1-2.5-1-3.5-.1L24 54.9c-1 .9-2.6.9-3.5-.1l-4.6-4.6c-.9-.9-.9-2.5 0-3.5L28.6 36c.9-1 .9-2.6 0-3.5L21.7 26V20.9L6.9 6.1A2 2 0 0 1 9.1 3.9L55.1 49.9a2 2 0 0 1 0 2.8l-2.8 2.8a2 2 0 0 1-2.8 0L9.1 9.1A2 2 0 0 1 11.3 6.9L55.1 50.7c1.2 1.2 1.2 3.1 0 4.3l-2.8 2.8a3 3 0 0 1-4.2 0L9.1 9.1A3 3 0 0 1 13.3 5.1L55.1 46.9z"/>
</svg>